<svg id="icons" xmlns="http://www.w3.org/2000/svg" viewBox="0 0 340 340"><rect x="82.991" y="156.828" width="235.155" height="50.705" style="fill:#eaf5ff"/><path d="M58.916,306.9l224.606-6.634c-12.807-16.742-10.758-46.968,4.1-58.52l-228.7-6.634a35.894,35.894,0,0,0,0,71.788Z" style="fill:#eaf5ff"/><path d="M207.4,260.3l27.938-11.262a3.04,3.04,0,0,1,2.249-.008l17.74,6.991a3.037,3.037,0,0,0,4.151-2.826V240.931L203.222,239.3v18.183A3.038,3.038,0,0,0,207.4,260.3Z" style="fill:#c9d4ff"/><path d="M149.574,72.534h106.4a7.738,7.738,0,0,1,7.738,7.738v46.315H43.633s-21.74-5.531-22.314-29.649c0,0-.306-24.76,27.816-30.567Z" style="fill:#eaf5ff"/><path d="M58.14,317.659A46.652,46.652,0,0,1,11.5,270.209c.427-25.579,21.83-45.854,47.413-45.854H301.424v6.471A10.921,10.921,0,0,1,290.5,241.747H58.749c-15.943,0-29.42,12.5-29.857,28.438A29.26,29.26,0,0,0,58.14,300.267H290.5a10.921,10.921,0,0,1,10.922,10.921v4.719a1.752,1.752,0,0,1-1.752,1.752Z" style="fill:#ffd071"/><path d="M52.953,140.005c-55.424-2.245-54.542-81.093.82-82.929H156.122s52.56,3.207,85.808-33.045a2.35,2.35,0,0,1,3.246-.235l1.971,1.652a8.946,8.946,0,0,1,.568,13.191c-44.634,46.648-126.908,31.567-194.221,33.9-34.753,1.038-35.333,50.612-.541,52.013h213.06a10.568,10.568,0,0,1,10.568,10.567v4.891Z" style="fill:#f47676"/><path d="M310.579,224.355a17.932,17.932,0,0,0,17.932-17.932V157.937a17.932,17.932,0,0,0-17.932-17.932H65.279v5.838a10.985,10.985,0,0,0,10.985,10.985H305.849a5.722,5.722,0,0,1,5.722,5.722v39.26a5.722,5.722,0,0,1-5.722,5.722H76.264a10.985,10.985,0,0,0-10.985,10.985v5.838Z" style="fill:#4e73a8"/><path d="M284.712,186.18h-77.49a4,4,0,0,1,0-8h77.49C289.945,178.262,289.989,186.089,284.712,186.18Z" style="fill:#c9d4ff"/><path d="M185.625,178.18H82.991v8H185.625C190.873,186.094,190.89,178.27,185.625,178.18Z" style="fill:#c9d4ff"/><path d="M275.38,267.007H53.738a4,4,0,0,0,0,8H275.122A53.551,53.551,0,0,1,275.38,267.007Z" style="fill:#c9d4ff"/><path d="M263.714,85.872H62.773a4,4,0,0,0,0,8H263.714Z" style="fill:#c9d4ff"/><path d="M263.714,103.209h-79.4a4,4,0,0,0,0,8h79.4Z" style="fill:#c9d4ff"/><path d="M164.419,111.209h-3.033a4,4,0,0,1,0-8h3.033C169.676,103.3,169.676,111.12,164.419,111.209Z" style="fill:#c9d4ff"/><path d="M139.943,111.209H53.738c-5.23-.081-5.28-7.908,0-8h86.205C145.173,103.29,145.223,111.117,139.943,111.209Z" style="fill:#c9d4ff"/><rect x="203.222" y="207.532" width="33.234" height="16.823" style="fill:#31536d"/><rect x="203.222" y="224.355" width="33.234" height="17.392" style="fill:#f4a44d"/><rect x="203.222" y="182.18" width="21.56" height="25.352" style="fill:#c9d4ff"/><polygon points="262.166 255.641 239.282 246.593 216.131 255.641 216.131 182.18 262.166 182.18 262.166 255.641" style="fill:#f47676"/><path d="M82.991,211.532a4,4,0,0,1-4-4v-50.7a4,4,0,0,1,8,0v50.7A4,4,0,0,1,82.991,211.532Z" style="fill:#383a49"/><path d="M283.525,304.267a3.993,3.993,0,0,1-3.18-1.57c-9.543-12.475-12.045-32.4-6.086-48.451a4,4,0,0,1,7.5,2.784c-4.975,13.4-2.9,30.561,4.94,40.806A4.027,4.027,0,0,1,283.525,304.267Z" style="fill:#383a49"/><path d="M263.714,115.506a4,4,0,0,1-4-4V83.666a7.14,7.14,0,0,0-7.132-7.132H152.053c-5.2-.066-5.3-7.91,0-8H252.582a15.149,15.149,0,0,1,15.132,15.132v27.84A4,4,0,0,1,263.714,115.506Z" style="fill:#383a49"/><path d="M301.424,321.659H58.14a50.282,50.282,0,0,1-36.116-15.138c-31.637-31.719-7.976-86.4,36.885-86.166h6.37a4,4,0,1,1,0,8H58.908c-37.854-.194-57.855,45.8-31.179,72.556A42.335,42.335,0,0,0,58.14,313.659H297.424v-2.471a6.93,6.93,0,0,0-6.922-6.921H58.14A33,33,0,0,1,34.3,294.2c-20.622-20.9-4.978-56.571,24.449-56.451H214.593a4,4,0,1,1,0,8H58.749c-22.4-.1-34.449,26.921-18.715,42.873a25.064,25.064,0,0,0,18.106,7.647H290.5a14.939,14.939,0,0,1,14.922,14.921v6.471A4,4,0,0,1,301.424,321.659Z" style="fill:#383a49"/><path d="M290.5,245.747H263.714a4,4,0,0,1,0-8H290.5a6.93,6.93,0,0,0,6.922-6.921v-6.471a4,4,0,0,1,8,0v6.471A14.939,14.939,0,0,1,290.5,245.747Z" style="fill:#383a49"/><path d="M276.581,144.005c-5.1-.35-3.863-5.395-4-8.891a6.576,6.576,0,0,0-6.568-6.568H52.953C36.514,128.9,22.145,114.139,22.959,97.7,23.4,81.618,37.1,68.534,53.494,68.534H156.41C205.7,67.763,233,47.7,244.886,35.811a5.119,5.119,0,0,0-1.07-7.936c-33.639,35.509-84.219,33.4-87.809,33.2H53.772A38.869,38.869,0,0,0,26.207,72.7C2.9,95.889,20.441,136.159,52.953,136.005H65.279c5.281.08,5.232,7.926,0,8H52.953A45.69,45.69,0,0,1,7.5,99.426C6.465,74.59,29.081,52.593,53.773,53.076c.243.007,102.368-.014,102.591.007.525.032,52.65,2.685,84.061-33.369a4,4,0,0,1,5.585-.438l3.707,3.106a13.032,13.032,0,0,1,.826,19.084c-45.562,47.8-128.37,32.846-197.05,35.068-12.1,0-22.214,9.593-22.538,21.385-.588,12.058,9.931,22.886,22,22.627h213.06a14.585,14.585,0,0,1,14.568,14.568v4.891A4,4,0,0,1,276.581,144.005Z" style="fill:#383a49"/><path d="M301.424,228.355H262.167c-5.246-.086-5.267-7.91,0-8h39.257C306.67,220.441,306.691,228.265,301.424,228.355Z" style="fill:#383a49"/><path d="M216.132,228.355H65.279a4,4,0,0,1-4-4v-5.838a15,15,0,0,1,14.984-14.985H216.132c5.188.074,5.314,7.9,0,8H76.263c-4.846.065-7.512,4.255-6.984,8.823H216.132C221.375,220.44,221.4,228.265,216.132,228.355Z" style="fill:#383a49"/><path d="M316.931,227.2c-4.335.061-5.54-6.231-1.417-7.742a14.01,14.01,0,0,0,9-13.034V157.937a13.948,13.948,0,0,0-13.932-13.932H69.279c-.51,4.562,2.114,8.756,6.985,8.823H305.849a9.733,9.733,0,0,1,9.722,9.722v39.261a9.732,9.732,0,0,1-9.722,9.721H262.167a4,4,0,0,1,0-8h43.682a1.723,1.723,0,0,0,1.722-1.721V162.55a1.723,1.723,0,0,0-1.722-1.722H76.263a15,15,0,0,1-14.984-14.985v-5.838a4,4,0,0,1,4-4h245.3a21.957,21.957,0,0,1,21.932,21.932v48.486C332.517,215.726,326.164,225.073,316.931,227.2Z" style="fill:#383a49"/><path d="M216.132,259.641a4.026,4.026,0,0,1-4-4V182.18a4,4,0,0,1,4-4h46.035a4,4,0,0,1,4,4v73.461a4,4,0,0,1-5.471,3.719l-21.423-8.469-21.685,8.475A4,4,0,0,1,216.132,259.641Zm4-73.461v63.6l17.694-6.915a3.993,3.993,0,0,1,2.927.006l17.414,6.884V186.18Z" style="fill:#383a49"/></svg>