<?xml version="1.0" encoding="iso-8859-1"?>
<!-- Generator: Adobe Illustrator 19.0.0, SVG Export Plug-In . SVG Version: 6.00 Build 0)  -->
<svg xmlns="http://www.w3.org/2000/svg" xmlns:xlink="http://www.w3.org/1999/xlink" version="1.1" id="Layer_1" x="0px" y="0px" viewBox="0 0 512 512" style="enable-background:new 0 0 512 512;" xml:space="preserve">
<path style="fill:#8C6950;" d="M100.944,105.659L100.944,105.659c-51.149,0-92.614,41.465-92.614,92.614v208.069h402.725V105.659  H100.944z"/>
<path style="opacity:0.1;enable-background:new    ;" d="M156.482,105.659h-55.538l0,0c-51.149,0-92.614,41.465-92.614,92.614  v208.069h55.538V198.272C63.869,147.123,105.333,105.659,156.482,105.659z"/>
<g>
	<rect x="8.331" y="231.304" style="fill:#594333;" width="324.985" height="33.323"/>
	<rect x="8.331" y="323.674" style="fill:#594333;" width="324.985" height="33.323"/>
</g>
<path style="fill:#FFAC55;" d="M163.387,215.391L163.387,215.391c-11.7,0-21.184,9.485-21.184,21.184v22.769  c0,11.7,9.485,21.184,21.184,21.184l0,0c11.7,0,21.184-9.485,21.184-21.184v-22.769  C184.571,224.876,175.086,215.391,163.387,215.391z"/>
<path style="fill:#735642;" d="M411.056,105.659L411.056,105.659c-51.149,0-92.614,41.465-92.614,92.614v208.069h185.228V198.272  C503.669,147.123,462.205,105.659,411.056,105.659z"/>
<path style="fill:#8C6950;" d="M351.764,406.341V198.272c0-32.693,26.597-59.291,59.291-59.291s59.291,26.598,59.291,59.291v208.069  H351.764z"/>
<g>
	<rect x="351.766" y="231.304" style="fill:#594333;" width="118.584" height="33.323"/>
	<rect x="351.766" y="323.674" style="fill:#594333;" width="118.584" height="33.323"/>
</g>
<circle cx="163.381" cy="247.965" r="7.435"/>
<path d="M503.669,414.672c4.601,0,8.331-3.73,8.331-8.331V198.272c0-55.661-45.284-100.944-100.944-100.944H156.598  c-4.601,0-8.331,3.73-8.331,8.331s3.73,8.331,8.331,8.331h198.958c-0.121,0.08-0.239,0.166-0.36,0.245  c-22.138,14.684-37.957,38.262-43.136,64.303c-1.292,6.492-1.949,13.115-1.949,19.735v24.697H189.565  c-4.928-9.443-14.81-15.908-26.179-15.908c-11.369,0-21.25,6.465-26.178,15.908H16.661v-24.697  c0-46.474,37.809-84.283,84.283-84.283h22.331c4.601,0,8.331-3.73,8.331-8.331s-3.73-8.331-8.331-8.331h-22.331  C45.283,97.328,0,142.611,0,198.272V231.3v33.323v59.048v33.323v49.349c0,4.601,3.73,8.331,8.331,8.331H503.669z M462.016,348.662  h-21.997c-4.601,0-8.331,3.73-8.331,8.331c0,4.601,3.73,8.331,8.331,8.331h21.997v32.687H360.095v-32.687h47.808  c4.601,0,8.331-3.73,8.331-8.331c0-4.601-3.73-8.331-8.331-8.331h-47.808v-16.661h101.921L462.016,348.662L462.016,348.662z   M462.016,315.339H360.095v-42.386h101.921V315.339z M462.016,256.292H360.095V239.63h101.921V256.292z M462.016,222.969H360.095  v-24.697c0-28.099,22.86-50.96,50.96-50.96c28.1,0,50.96,22.862,50.96,50.96V222.969z M326.772,198.272  c0-4.356,0.332-8.637,0.973-12.818c6.192-40.413,41.194-71.465,83.31-71.465c46.474,0,84.283,37.809,84.283,84.283v199.739h-16.661  V198.272c0-37.287-30.335-67.622-67.622-67.622s-67.622,30.335-67.622,67.622v199.739h-16.661V198.272z M150.532,236.577  c0-6.989,5.876-12.854,12.854-12.854c6.861,0,12.854,5.987,12.854,12.854c0,0,0,22.755,0,22.769c0,6.991-5.877,12.854-12.855,12.854  c-6.913,0-12.854-5.926-12.854-12.854C150.532,259.346,150.532,236.586,150.532,236.577z M16.661,239.63h117.209v16.661H16.661  V239.63z M310.111,398.011H16.661v-32.687h293.45V398.011z M310.111,348.662H16.661v-16.661h293.45V348.662z M310.111,256.292  h-34.407c-4.601,0-8.331,3.73-8.331,8.331c0,4.601,3.73,8.331,8.331,8.331h34.407v42.386H16.661v-42.386h120.546  c4.928,9.443,14.81,15.908,26.179,15.908c11.369,0,21.25-6.465,26.178-15.908h52.915c4.601,0,8.331-3.73,8.331-8.331  c0-4.601-3.73-8.331-8.331-8.331h-49.579V239.63h117.209L310.111,256.292L310.111,256.292z"/>
<g>
</g>
<g>
</g>
<g>
</g>
<g>
</g>
<g>
</g>
<g>
</g>
<g>
</g>
<g>
</g>
<g>
</g>
<g>
</g>
<g>
</g>
<g>
</g>
<g>
</g>
<g>
</g>
<g>
</g>
</svg>
