<svg xmlns="http://www.w3.org/2000/svg" width="48" height="45.496" viewBox="0 0 48 45.496">
  <g>
    <g>
      <path d="M24.916,10.021a.75.75,0,0,0,.75-.75V.75a.75.75,0,0,0-1.5,0V9.271A.75.75,0,0,0,24.916,10.021Z" fill="#c6c6c6"/>
      <path d="M17.68,36.611a.75.75,0,0,0-.75.75v4.444a.75.75,0,0,0,1.5,0V37.361A.75.75,0,0,0,17.68,36.611Z" fill="#c6c6c6"/>
      <path d="M45.149,30.635A20.534,20.534,0,0,0,4.38,34.125a.75.75,0,0,0,1.5,0A19.062,19.062,0,0,1,21.554,15.393c-2.8,3.187-4.715,10.286-4.715,18.732a.75.75,0,0,0,1.5,0c0-11.218,3.466-19.035,6.578-19.035,2.942,0,6.2,6.994,6.544,17.239a1.484,1.484,0,1,0,1.5-.038c-.254-7.63-2.079-13.946-4.678-16.9a19.069,19.069,0,0,1,15.39,15.588,1.485,1.485,0,1,0,1.48-.346Z" fill="#c6c6c6"/>
    </g>
    <circle cx="24.916" cy="11.34" r="3" fill="#ffbd66"/>
    <circle cx="24.916" cy="11.34" r="1.5" fill="#fddc85"/>
    <polygon points="32.244 33.421 33.85 36.676 37.441 37.197 34.843 39.729 35.456 43.305 32.244 41.616 29.033 43.305 29.647 39.729 27.048 37.197 30.639 36.676 32.244 33.421" fill="#ffbd66"/>
    <path d="M9.35,38.341a.536.536,0,0,0,.086,1c1.174.335,2.24,1.05,1.447,2.584-.635,1.229-1.714.924-2.627.32a.544.544,0,0,0-.842.565c.284,1.216.186,2.551-1.542,2.681-1.366.1-1.614-1.008-1.521-2.145a.546.546,0,0,0-.928-.42c-.86.8-1.958,1.281-2.878-.078-.808-1.193.114-2.028,1.171-2.553a.546.546,0,0,0-.079-1.011C.506,38.933-.51,38.2.28,36.675c.635-1.229,1.713-.922,2.626-.315a.544.544,0,0,0,.843-.565c-.285-1.219-.186-2.556,1.543-2.687,1.363-.1,1.6,1.039,1.49,2.209a.546.546,0,0,0,.931.422c.875-.836,1.986-1.343,2.905.014C11.431,36.952,10.453,37.8,9.35,38.341Z" fill="#f87670"/>
    <circle cx="17.68" cy="34.277" r="3.75" fill="#59c5ef"/>
    <circle cx="17.68" cy="42.143" r="2.25" fill="#2ba0bf"/>
    <circle cx="5.579" cy="39.299" r="1.875" fill="#db5743"/>
    <circle cx="17.68" cy="34.35" r="1.875" fill="#2ba0bf"/>
    <polygon points="44.702 40.736 41.405 36.331 44.702 31.926 48 36.331 44.702 40.736" fill="#79ccb8"/>
  </g>
</svg>
