<?xml version="1.0" encoding="utf-8"?>
<svg xmlns="http://www.w3.org/2000/svg" style="margin: auto; background: rgba(0, 0, 0, 0) none repeat scroll 0% 0%; display: block; shape-rendering: auto;" width="280" height="250" preserveAspectRatio="xMidYMid">
<style type="text/css">
  text {
    text-anchor: middle; font-size: 80px; opacity: 0;
  }
</style>
<g style="transform-origin:140px 125px;transform:scale(1)">
<g transform="translate(140,125)">
  <g transform="translate(0,0)"><g class="path" style="transform: matrix(0.01, 0, 0, 0.01, 0, 0); transform-origin: -92.8047px 5.16211px 0px; animation: 1s linear 0s 1 normal forwards running bounce-in-0482e90e-3cb9-4cb3-8019-83a6975d620c;"><path d="M10-20.32L10-20.32L10.08-18.32L10.08-18.32Q10.08-17.84 10.72-17.84L10.72-17.84L10.72-17.84Q13.28-18.08 15.20-19.16L15.20-19.16L15.20-19.16Q17.12-20.24 18.08-21.60L18.08-21.60L18.08-21.60Q20-24.56 20.16-26.72L20.16-26.72L20.24-27.68L20.24-27.68Q20.24-32 16.80-32L16.80-32L16.80-32Q14.24-32 12.64-29.76L12.64-29.76L12.64-29.76Q10-26.24 10-20.32zM27.44-9.68L27.44-9.68L27.44-9.68Q27.44-6.64 26.20-4.36L26.20-4.36L26.20-4.36Q24.96-2.08 23.40-1L23.40-1L23.40-1Q21.84 0.08 19.76 0.72L19.76 0.72L19.76 0.72Q17.12 1.52 14.72 1.52L14.72 1.52L14.72 1.52Q8 1.52 4.80-3.52L4.80-3.52L4.80-3.52Q1.60-8.56 1.60-16.36L1.60-16.36L1.60-16.36Q1.60-24.16 5.56-30.24L5.56-30.24L5.56-30.24Q9.52-36.32 17.44-36.32L17.44-36.32L17.44-36.32Q24.64-36.32 27.20-31.28L27.20-31.28L27.20-31.28Q28.24-29.36 28.24-27.64L28.24-27.64L28.24-27.64Q28.24-25.92 28.08-24.92L28.08-24.92L28.08-24.92Q27.92-23.92 26.96-21.92L26.96-21.92L26.96-21.92Q26-19.92 24.40-18.32L24.40-18.32L24.40-18.32Q22.80-16.72 19.36-15.28L19.36-15.28L19.36-15.28Q15.92-13.84 11.28-13.36L11.28-13.36L11.28-13.36Q10.64-13.36 10.64-12.80L10.64-12.80L10.64-12.80Q10.64-12.08 11.16-10.68L11.16-10.68L11.16-10.68Q11.68-9.28 12.32-8.32L12.32-8.32L12.32-8.32Q14.08-6.08 17.52-6.08L17.52-6.08L17.52-6.08Q20.96-6.08 23.36-8.32L23.36-8.32L23.36-8.32Q24.64-9.52 25.44-11.28L25.44-11.28L25.44-11.28Q25.76-11.92 26.28-11.92L26.28-11.92L26.28-11.92Q26.80-11.92 27.12-11.04L27.12-11.04L27.12-11.04Q27.44-10.16 27.44-9.68" fill="#14324b" stroke="none" stroke-width="none" transform="translate(-107.72501373291016,22.562952270507814)" style="fill: rgb(20, 50, 75);"></path></g><g class="path" style="transform: matrix(0.01, 0, 0, 0.01, 0, 0); transform-origin: -61.2461px 5.08398px 0px; animation: 1s linear 0.0942857s 1 normal forwards running bounce-in-0482e90e-3cb9-4cb3-8019-83a6975d620c;"><path d="M31.84 0.56L31.84 0.56L31.84 0.56Q33.28-8.08 33.28-20.16L33.28-20.16L33.28-20.16Q33.28-32.24 32.56-35.84L32.56-35.84L32.56-35.84Q32.56-36.88 34.96-36.88L34.96-36.88L34.96-36.88Q38.64-36.88 39.84-34.08L39.84-34.08L39.84-34.08Q39.92-33.84 40.24-33.84L40.24-33.84L40.24-33.84Q40.56-33.84 40.72-34L40.72-34L40.72-34Q43.20-36.56 48.40-36.56L48.40-36.56L48.40-36.56Q53.60-36.56 56.64-33.92L56.64-33.92L56.64-33.92Q59.68-31.28 59.68-26.24L59.68-26.24L59.68-26.24Q59.68-23.20 59.16-17.60L59.16-17.60L59.16-17.60Q58.64-12 58.64-9.28L58.64-9.28L58.64-9.28Q58.64-2.80 60.80 0.08L60.80 0.08L60.80 0.08Q61.12 0.48 61.12 0.88L61.12 0.88L61.12 0.88Q61.12 1.92 58.88 1.92L58.88 1.92L58.88 1.92Q48.96 1.92 48.96-6.88L48.96-6.88L48.96-6.88Q48.96-10.24 50.48-16.24L50.48-16.24L50.48-16.24Q52-22.24 52-25.36L52-25.36L52-25.36Q52-31.76 46.72-31.76L46.72-31.76L46.72-31.76Q44.16-31.76 42.84-30.24L42.84-30.24L42.84-30.24Q41.52-28.72 41.36-26.76L41.36-26.76L41.36-26.76Q41.20-24.80 41.20-19.36L41.20-19.36L41.20-19.36Q41.20-11.04 41.76-4.88L41.76-4.88L41.92-3.12L41.92-3.12Q41.92-0.88 39 0.36L39 0.36L39 0.36Q36.08 1.60 33.96 1.60L33.96 1.60L33.96 1.60Q31.84 1.60 31.84 0.56" fill="#14324b" stroke="none" stroke-width="none" transform="translate(-107.72501373291016,22.562952270507814)" style="fill: rgb(20, 50, 75);"></path></g><g class="path" style="transform: matrix(0.01, 0, 0, 0.01, 0, 0); transform-origin: -28.125px -6.11719px 0px; animation: 1s linear 0.188571s 1 normal forwards running bounce-in-0482e90e-3cb9-4cb3-8019-83a6975d620c;"><path d="M86-0.08L86-0.08L81.44-0.16L81.44-0.16Q80.48-0.16 79.52-0.16L79.52-0.16L64.96 0.56L64.96 0.56Q63.76 0.56 63.76-0.24L63.76-0.24L63.76-0.24Q63.76-0.48 64-1.36L64-1.36L64-1.36Q64.80-3.20 65.16-13.04L65.16-13.04L65.16-13.04Q65.52-22.88 65.52-31L65.52-31L65.52-31Q65.52-39.12 65.20-44.16L65.20-44.16L65.20-44.16Q64.72-51.76 63.60-53.28L63.60-53.28L63.60-53.28Q62.72-54.40 62.72-54.72L62.72-54.72L62.72-54.72Q62.72-56 67.04-56.96L67.04-56.96L67.04-56.96Q71.36-57.92 73.24-57.92L73.24-57.92L73.24-57.92Q75.12-57.92 75.60-57.72L75.60-57.72L75.60-57.72Q76.08-57.52 76.08-56.88L76.08-56.88L76.08-56.88Q76.08-56.24 75.76-52.80L75.76-52.80L75.76-52.80Q74.96-42.64 74.96-29.16L74.96-29.16L74.96-29.16Q74.96-15.68 75.60-7.60L75.60-7.60L75.60-7.60Q75.60-6.72 77.12-6.08L77.12-6.08L77.12-6.08Q78.64-5.44 80.88-5.44L80.88-5.44L80.88-5.44Q88.72-5.44 88.72-17.52L88.72-17.52L88.72-17.52Q88.72-20.88 88.36-21.68L88.36-21.68L88.36-21.68Q88-22.48 88-22.72L88-22.72L88-22.72Q88-23.52 89.12-23.52L89.12-23.52L89.12-23.52Q90-23.52 91.48-22.64L91.48-22.64L91.48-22.64Q92.96-21.76 93.92-20.44L93.92-20.44L93.92-20.44Q94.88-19.12 95.68-16.28L95.68-16.28L95.68-16.28Q96.48-13.44 96.48-9.60L96.48-9.60L96.48-9.60Q96.48-0.08 94.16-0.08L94.16-0.08L94.16-0.08Q90.08-0.08 86-0.08" fill="#14324b" stroke="none" stroke-width="none" transform="translate(-107.72501373291016,22.562952270507814)" style="fill: rgb(20, 50, 75);"></path></g><g class="path" style="transform: matrix(0.01, 0, 0, 0.01, 0, 0); transform-origin: 4.23438px 5.16211px 0px; animation: 1s linear 0.282857s 1 normal forwards running bounce-in-0482e90e-3cb9-4cb3-8019-83a6975d620c;"><path d="M107.04-20.32L107.04-20.32L107.12-18.32L107.12-18.32Q107.12-17.84 107.76-17.84L107.76-17.84L107.76-17.84Q110.32-18.08 112.24-19.16L112.24-19.16L112.24-19.16Q114.16-20.24 115.12-21.60L115.12-21.60L115.12-21.60Q117.04-24.56 117.20-26.72L117.20-26.72L117.28-27.68L117.28-27.68Q117.28-32 113.84-32L113.84-32L113.84-32Q111.28-32 109.68-29.76L109.68-29.76L109.68-29.76Q107.04-26.24 107.04-20.32zM124.48-9.68L124.48-9.68L124.48-9.68Q124.48-6.64 123.24-4.36L123.24-4.36L123.24-4.36Q122-2.08 120.44-1L120.44-1L120.44-1Q118.88 0.08 116.80 0.72L116.80 0.72L116.80 0.72Q114.16 1.52 111.76 1.52L111.76 1.52L111.76 1.52Q105.04 1.52 101.84-3.52L101.84-3.52L101.84-3.52Q98.64-8.56 98.64-16.36L98.64-16.36L98.64-16.36Q98.64-24.16 102.60-30.24L102.60-30.24L102.60-30.24Q106.56-36.32 114.48-36.32L114.48-36.32L114.48-36.32Q121.68-36.32 124.24-31.28L124.24-31.28L124.24-31.28Q125.28-29.36 125.28-27.64L125.28-27.64L125.28-27.64Q125.28-25.92 125.12-24.92L125.12-24.92L125.12-24.92Q124.96-23.92 124-21.92L124-21.92L124-21.92Q123.04-19.92 121.44-18.32L121.44-18.32L121.44-18.32Q119.84-16.72 116.40-15.28L116.40-15.28L116.40-15.28Q112.96-13.84 108.32-13.36L108.32-13.36L108.32-13.36Q107.68-13.36 107.68-12.80L107.68-12.80L107.68-12.80Q107.68-12.08 108.20-10.68L108.20-10.68L108.20-10.68Q108.72-9.28 109.36-8.32L109.36-8.32L109.36-8.32Q111.12-6.08 114.56-6.08L114.56-6.08L114.56-6.08Q118-6.08 120.40-8.32L120.40-8.32L120.40-8.32Q121.68-9.52 122.48-11.28L122.48-11.28L122.48-11.28Q122.80-11.92 123.32-11.92L123.32-11.92L123.32-11.92Q123.84-11.92 124.16-11.04L124.16-11.04L124.16-11.04Q124.48-10.16 124.48-9.68" fill="#14324b" stroke="none" stroke-width="none" transform="translate(-107.72501373291016,22.562952270507814)" style="fill: rgb(20, 50, 75);"></path></g><g class="path" style="transform: matrix(0.01, 0, 0, 0.01, 0, 0); transform-origin: 33.875px 5.00195px 0px; animation: 1s linear 0.377143s 1 normal forwards running bounce-in-0482e90e-3cb9-4cb3-8019-83a6975d620c;"><path d="M154.48-24L154.48-24L154.32-13.76L154.32-13.76Q154.32-3.12 156.64-0.96L156.64-0.96L156.64-0.96Q156.96-0.64 156.96-0.24L156.96-0.24L156.96-0.24Q156.96 0.96 151.80 0.96L151.80 0.96L151.80 0.96Q146.64 0.96 146.32-2.08L146.32-2.08L146.32-2.08Q146.24-2.80 146.24-5.04L146.24-5.04L146.56-17.84L146.56-17.84Q146.56-18.40 145.92-18.40L145.92-18.40L145.92-18.40Q142.08-18.40 138.72-16.24L138.72-16.24L138.72-16.24Q135.36-14.08 135.36-10.72L135.36-10.72L135.36-10.72Q135.36-8.96 136.32-7.76L136.32-7.76L136.32-7.76Q137.28-6.56 138.68-6.56L138.68-6.56L138.68-6.56Q140.08-6.56 141-7.12L141-7.12L141-7.12Q141.92-7.68 142.08-7.76L142.08-7.76L142.08-7.76Q143.44-7.60 143.44-4.92L143.44-4.92L143.44-4.92Q143.44-2.24 140.96-0.60L140.96-0.60L140.96-0.60Q138.48 1.04 135.76 1.04L135.76 1.04L135.76 1.04Q133.04 1.04 131.08 0.08L131.08 0.08L131.08 0.08Q129.12-0.88 128.24-2.08L128.24-2.08L128.24-2.08Q127.36-3.28 126.80-4.80L126.80-4.80L126.80-4.80Q126.24-6.64 126.24-8L126.24-8L126.24-8Q126.24-13.60 129.76-16.96L129.76-16.96L129.76-16.96Q133.28-20.32 138.80-21.76L138.80-21.76L138.80-21.76Q146.08-23.20 146.40-24.40L146.40-24.40L146.40-24.40Q146.64-25.28 146.64-27.36L146.64-27.36L146.64-27.36Q146.64-31.60 142.32-31.60L142.32-31.60L142.32-31.60Q140.48-31.60 139.04-30.44L139.04-30.44L139.04-30.44Q137.60-29.28 137.60-27.52L137.60-27.52L138.08-25.60L138.08-25.60Q137.92-24.24 135.20-24L135.20-24L134.32-23.92L134.32-23.92Q131.92-23.92 130.52-25.12L130.52-25.12L130.52-25.12Q129.12-26.32 129.12-28.32L129.12-28.32L129.12-28.32Q129.12-29.60 129.96-31.16L129.96-31.16L129.96-31.16Q130.80-32.72 132.08-33.68L132.08-33.68L132.08-33.68Q133.36-34.64 136.04-35.40L136.04-35.40L136.04-35.40Q138.72-36.16 141.20-36.16L141.20-36.16L141.20-36.16Q143.68-36.16 145.04-36L145.04-36L145.04-36Q146.40-35.84 148.76-35.24L148.76-35.24L148.76-35.24Q151.12-34.64 152.68-32.96L152.68-32.96L152.68-32.96Q154.24-31.28 154.36-29.40L154.36-29.40L154.36-29.40Q154.48-27.52 154.48-24" fill="#14324b" stroke="none" stroke-width="none" transform="translate(-107.72501373291016,22.562952270507814)" style="fill: rgb(20, 50, 75);"></path></g><g class="path" style="transform: matrix(0.01, 0, 0, 0.01, 0, 0); transform-origin: 64.0352px 5.00195px 0px; animation: 1s linear 0.471429s 1 normal forwards running bounce-in-0482e90e-3cb9-4cb3-8019-83a6975d620c;"><path d="M184.16-27.52L183.76-21.44L184.08-18.64L184.08-18.64Q184.08-17.12 181.20-17.12L181.20-17.12L181.20-17.12Q175.36-17.12 175.36-21.52L175.36-21.52L175.36-21.52Q175.36-22.56 175.92-24.40L175.92-24.40L175.92-24.40Q176.48-26.24 176.48-27.60L176.48-27.60L176.48-27.60Q176.48-28.96 175.68-29.96L175.68-29.96L175.68-29.96Q174.88-30.96 173.36-30.96L173.36-30.96L173.36-30.96Q171.84-30.96 170.76-29.88L170.76-29.88L170.76-29.88Q169.68-28.80 169.44-27.68L169.44-27.68L169.12-26.56L169.12-26.56Q168.64-24.08 168.64-18.28L168.64-18.28L168.64-18.28Q168.64-12.48 168.80-9.16L168.80-9.16L168.80-9.16Q168.96-5.84 169.12-4.60L169.12-4.60L169.12-4.60Q169.28-3.36 169.28-3.12L169.28-3.12L169.28-3.12Q169.28-1.12 166.80 0.12L166.80 0.12L166.80 0.12Q164.32 1.36 161.84 1.36L161.84 1.36L161.84 1.36Q159.36 1.36 159.36 0.32L159.36 0.32L159.76-2.16L159.76-2.16Q160.88-9.12 160.88-20.32L160.88-20.32L160.88-20.32Q160.88-31.52 160.08-35.52L160.08-35.52L160.08-35.52Q160.08-36.48 161.76-36.48L161.76-36.48L161.76-36.48Q166.08-36.48 167.52-33.52L167.52-33.52L167.52-33.52Q167.60-33.20 167.80-33.20L167.80-33.20L167.80-33.20Q168.00-33.20 168.88-33.92L168.88-33.92L168.88-33.92Q171.52-36.08 175.12-36.08L175.12-36.08L175.12-36.08Q177.36-36.08 179.60-35.20L179.60-35.20L179.60-35.20Q184.16-33.36 184.16-27.52L184.16-27.52" fill="#14324b" stroke="none" stroke-width="none" transform="translate(-107.72501373291016,22.562952270507814)" style="fill: rgb(20, 50, 75);"></path></g><g class="path" style="transform: matrix(0.01, 0, 0, 0.01, 0, 0); transform-origin: 94.6758px 5.08398px 0px; animation: 1s linear 0.565714s 1 normal forwards running bounce-in-0482e90e-3cb9-4cb3-8019-83a6975d620c;"><path d="M187.76 0.56L187.76 0.56L187.76 0.56Q189.20-8.08 189.20-20.16L189.20-20.16L189.20-20.16Q189.20-32.24 188.48-35.84L188.48-35.84L188.48-35.84Q188.48-36.88 190.88-36.88L190.88-36.88L190.88-36.88Q194.56-36.88 195.76-34.08L195.76-34.08L195.76-34.08Q195.84-33.84 196.16-33.84L196.16-33.84L196.16-33.84Q196.48-33.84 196.64-34L196.64-34L196.64-34Q199.12-36.56 204.32-36.56L204.32-36.56L204.32-36.56Q209.52-36.56 212.56-33.92L212.56-33.92L212.56-33.92Q215.60-31.28 215.60-26.24L215.60-26.24L215.60-26.24Q215.60-23.20 215.08-17.60L215.08-17.60L215.08-17.60Q214.56-12 214.56-9.28L214.56-9.28L214.56-9.28Q214.56-2.80 216.72 0.08L216.72 0.08L216.72 0.08Q217.04 0.48 217.04 0.88L217.04 0.88L217.04 0.88Q217.04 1.92 214.80 1.92L214.80 1.92L214.80 1.92Q204.88 1.92 204.88-6.88L204.88-6.88L204.88-6.88Q204.88-10.24 206.40-16.24L206.40-16.24L206.40-16.24Q207.92-22.24 207.92-25.36L207.92-25.36L207.92-25.36Q207.92-31.76 202.64-31.76L202.64-31.76L202.64-31.76Q200.08-31.76 198.76-30.24L198.76-30.24L198.76-30.24Q197.44-28.72 197.28-26.76L197.28-26.76L197.28-26.76Q197.12-24.80 197.12-19.36L197.12-19.36L197.12-19.36Q197.12-11.04 197.68-4.88L197.68-4.88L197.84-3.12L197.84-3.12Q197.84-0.88 194.92 0.36L194.92 0.36L194.92 0.36Q192 1.60 189.88 1.60L189.88 1.60L189.88 1.60Q187.76 1.60 187.76 0.56" fill="#14324b" stroke="none" stroke-width="none" transform="translate(-107.72501373291016,22.562952270507814)" style="fill: rgb(20, 50, 75);"></path></g></g>
</g>
</g>
<style id="bounce-in-0482e90e-3cb9-4cb3-8019-83a6975d620c" data-anikit="">@keyframes bounce-in-0482e90e-3cb9-4cb3-8019-83a6975d620c
{
  0% {
    animation-timing-function: cubic-bezier(0.0383,0.3388,0.0421,0.6652);
    transform: matrix(0.01,0,0,0.01,0,0);
    opacity: 1;
  }
  4.7% {
    animation-timing-function: cubic-bezier(0.3296,0.3336,0.5772,0.6672);
    transform: matrix(0.556,0,0,0.556,0,0);
    opacity: 1;
  }
  8.4% {
    animation-timing-function: cubic-bezier(0.0781,0.1617,0.0874,0.9301);
    transform: matrix(0.979,0,0,0.979,0,0);
    opacity: 1;
  }
  12.4% {
    animation-timing-function: cubic-bezier(0.8341,0.1496,0.8634,0.7673);
    transform: matrix(1.153,0,0,1.153,0,0);
    opacity: 1;
  }
  16.3% {
    animation-timing-function: cubic-bezier(0.3264,0.3332,0.5758,0.6695);
    transform: matrix(1.008,0,0,1.008,0,0);
    opacity: 1;
  }
  21.2% {
    animation-timing-function: cubic-bezier(0.0921,0.1883,0.3277,1);
    transform: matrix(0.704,0,0,0.704,0,0);
    opacity: 1;
  }
  24.5% {
    animation-timing-function: cubic-bezier(0.6905,0.0944,0.8759,0.7624);
    transform: matrix(0.626,0,0,0.626,0,0);
    opacity: 1;
  }
  27.7% {
    animation-timing-function: cubic-bezier(0.3688,0.332,0.624,0.6684);
    transform: matrix(0.704,0,0,0.704,0,0);
    opacity: 1;
  }
  32.6% {
    animation-timing-function: cubic-bezier(0.1368,0.2364,0.2451,0.9049);
    transform: matrix(0.958,0,0,0.958,0,0);
    opacity: 1;
  }
  37.4% {
    animation-timing-function: cubic-bezier(0.5936,0.0846,0.3495,1);
    transform: matrix(1.085,0,0,1.085,0,0);
    opacity: 1;
  }
  49.5% {
    animation-timing-function: cubic-bezier(0.5522,0.0981,0.3807,1);
    transform: matrix(0.802,0,0,0.802,0,0);
    opacity: 1;
  }
  62.4% {
    animation-timing-function: cubic-bezier(0.4497,0.1349,0.4911,1);
    transform: matrix(1.044,0,0,1.044,0,0);
    opacity: 1;
  }
  74.1% {
    animation-timing-function: cubic-bezier(0.429,0,0.5239,1);
    transform: matrix(0.914,0,0,0.914,0,0);
    opacity: 1;
  }
  87% {
    animation-timing-function: cubic-bezier(0.3501,0,0.6422,1);
    transform: matrix(1.013,0,0,1.013,0,0);
    opacity: 1;
  }
  95.8% {
    animation-timing-function: cubic-bezier(0.3653,0,0.6776,1);
    transform: matrix(0.992,0,0,0.992,0,0);
    opacity: 1;
  }
  100% {
    transform: matrix(1,0,0,1,0,0);
    opacity: 1;
  }
}</style></svg>